# xmcd CD database file
#
# Track frame offsets:
#	150
#	18647
#	36323
#	51609
#	66687
#	79188
#	94077
#	110613
#	125990
#	139924
#	154001
#	165492
#	182104
#
# Disc length: 2640 seconds
#
# Revision: 0
# Processed by: cddbd v1.5.2PL0 Copyright (c) Steve Scherf et al.
# Submitted via: CDex 1.51
#
DISCID=c50a4e0d
DTITLE=Cavalo de Pau - volume XIII - Base do meu Coração
DYEAR=1900
DGENRE=Forró
TTITLE0=vem meu amor
TTITLE1=sem saída
TTITLE2=louca paixão
TTITLE3=não basta
TTITLE4=não deixei de te amar
TTITLE5=sai solidão
TTITLE6=a base do meu coração
TTITLE7=perdida de amor
TTITLE8=meu bebê
TTITLE9=loucamente apaixonada
TTITLE10=minha vida não é nada sem você
TTITLE11=padecer no paraíso - você me purifica
TTITLE12=me faça feliz - deixa
EXTD=
EXTT0=
EXTT1=
EXTT2=
EXTT3=
EXTT4=
EXTT5=
EXTT6=
EXTT7=
EXTT8=
EXTT9=
EXTT10=
EXTT11=
EXTT12=
PLAYORDER=
